<svg xmlns="http://www.w3.org/2000/svg" width="1080" height="1030" fill="none"><path fill="#3479AA" d="M275.586 1027.35c-80.475 0-160.936-8.06-157.445-24.21-3.477-16.13 76.987-24.201 157.439-24.201 80.474 0 160.932 8.071 157.441 24.211 3.479 16.13-76.984 24.2-157.435 24.2Z"/><path fill="#464648" d="m211.85 757.474 15.435 206.788s13.427 12.704 26.342 3.99l-8.117-214.769s-10.545-15.967-33.66 3.991Z"/><path fill="#464648" d="m227.285 964.262 1.109 23.306s26.04 19.562 68.446 17.082c0 0 5.827-31.742-43.213-36.398 0 0-12.818 3.558-26.342-3.99ZM206.715 757.474l-15.434 206.788s-13.426 12.704-26.342 3.99l8.115-214.769s10.544-15.967 33.661 3.991Z"/><path fill="#464648" d="m191.281 964.262-1.108 23.306s-26.041 19.562-68.45 17.082c0 0-5.826-31.742 43.216-36.398 0 0 12.819 3.558 26.342-3.99ZM275.393 716.574c-17.224 70.498-104.952 77.49-127.084 8.089l127.084-8.089Z"/><path fill="#2F2E2E" d="M275.393 716.574c-3.03 7.72-6.964 19.174-11.386 25.893-33.703 11.607-76.939 10.01-102.252 7.611-5.674-6.952-10.309-15.427-13.446-25.415l127.084-8.089Z"/><path fill="#F57F6B" d="m55.035 546.69-3.503-5.173c6.448-40.581-26.602-44.504-16.725-10.642-11.958 3.275-13.055-21.907-23.09-20.77-6.723-.347-7.992 9.026-3.15 16.894-23.815 6.491 7.548 37.602 27.003 30.417l5.12 4.894 14.345-15.62Z"/><path fill="#F8A749" d="M168.821 596.218c-80.139 59.675-49.459 45.191-130.157-34.704 2.319-12.721 16.782-15.575 16.782-15.575 2.74 2.57 57.851 54.167 58.605 54.889l49.381-57.97c22.721 32.424 5.389 53.36 5.389 53.36Z"/><path fill="#F57F6B" d="m354.986 509.388 3.729-5.133c-13.694-39.461 19.242-48.596 14.12-13.33 12.295 1.598 9.902-23.499 19.998-23.761 6.605-1.273 9.157 7.834 5.451 16.298 24.483 3.132-2.274 38.284-22.533 33.862l-4.4 5.553-16.365-13.489Z"/><path fill="#F8A749" d="m373.239 521.797-52.638 76.325c-4.048 5.855-11.852 7.759-18.139 4.411l-53.337-28.365s-15.962-15.803 2.069-51.058l52.837 48.068 50.443-62.489s14.717.83 18.765 13.108Z"/><path fill="#F57F6B" d="M231.742 518.739c1.29-.739-42.335 41.57-52.447 15.081.444-.676-6.191-23.767-9.788-30.127 26.231-3.894 44.335-18.378 55.76-35.363.125 15.274 1.331 37.42 6.475 50.409Z"/><path fill="#F8A749" d="M277.791 732.496S225.847 754.45 140.677 729l16.483-171.538c.513-10.636 9.066-18.282 17.542-23.454l16.182 6.974 48.128-26.051c12.495 8.56 24.574 13.983 26.49 31.003l12.289 186.562Z"/><path fill="#F57F6B" d="M238.455 438.981c-13.478 66.525-105.188 88.927-144.63 37.239-9.308-11.642-13.683-26.49-12.784-41.372l7.032-116.797c39.781-3.712 117.013-9.715 127.98 41.996l.744 43.753s13.285 1.256 21.277-16.439c6.31-5.196 15.104-8.896 24.432-2.103 16.65 15.12-5.952 54.996-24.051 53.723Z"/><path fill="#E14035" d="M225.847 485.156c-11.494 14.506-28.49 26.358-51.785 29.763-1.279-3.655-2.777-7.509-4.555-11.227 26.231-3.893 44.335-18.377 55.76-35.362.04 4.974.199 10.811.58 16.826Z"/><path fill="#DCBFBC" d="m87.296 314.356-.22 3.638 1.994.119.22-3.638"/><path fill="#2C151B" d="M267.821 394.148c-2.638-14.797-22.221-15.149-29.747-6.787-7.992 17.695-21.277 16.439-21.277 16.439l-.739-43.753c-12.346-54.269-94.935-45.811-135.996-40.678-8.691-89.683 123.382-83.811 145.387-25.949 0 0 65.53 8.072 42.372 100.728Z"/><path fill="#2C151B" d="M225.449 293.42s3.428-24.579 23.323-28.161c0 0 3.474 19.72-23.323 28.161ZM187.92 391.05c.157 16.581-17.398 16.581-17.239 0-.157-16.576 17.398-16.576 17.239 0ZM122.661 389.129c.158 16.581-17.397 16.581-17.238 0-.158-16.576 17.397-16.576 17.238 0Z"/><path fill="#fff" d="M125.215 460.491s39.753 2.029 55.893-13.154c.381 14.49-24.774 46.755-55.893 13.154Z"/><path fill="#2C151B" d="M96.604 342.426c2.517-7.294 5.854-13.547 9.57-18.879-10.788 6.111-21.997 14.945-28.89 27.172 0 0-15.382-94.543 55.642-99.057l2.037 46.692c2.857-1.438 4.615-2.08 4.615-2.08l53.303 19.958c-54.102.864-96.277 26.194-96.277 26.194ZM197.436 371.137c-9.789-8.532-19.419-7.395-24.773-5.678-2.757.881-4.995-2.416-3.156-4.673 11.929-9.737 27.724 5.508 27.929 10.351ZM120.099 364.703c-5.494-.682-15.563-.103-23.614 10.709 0 0 1.438-13.068 14.924-16.763 6.393-1.74 9.569-.301 11.168 1.716 1.478 1.882-.1 4.616-2.478 4.338Z"/><path fill="#E14035" d="M237.176 429.136s11.705-9.954 8.908-18.742c-1.279-3.996-1.598-8.373-1.58-11.926-.023-8.635 12.005-11.733 15.603-3.519 4.076 8.43-2.234 38.518-22.931 34.187Z"/><path fill="#FAF9E7" d="M190.885 540.977c-3.789 18.213-28.674 6.207-12.708-12.102l1.113 4.945 11.595 7.157ZM239.007 514.936c0 6.071-8.408 18.577-16.218 28.86-8.703 11.602-24.363 7.674-31.904-2.819 13.365-4.508 38.936-31.321 37.679-33.521 3.127-.933 10.249-2.331 10.443 7.48Z"/><path fill="#E79848" d="M240.769 516.204c-4.593 12.784-22.874 47.243-43.212 31.207 7.851 5.798 19.161 4.417 25.232-3.615 7.81-10.289 16.223-22.795 16.223-28.865l1.757 1.273ZM111.429 613.481s-6.792-6.133-3.037-17.957l5.654 5.31s-3.776 6.855-2.617 12.647ZM152.283 608.218l2.871-29.883-14.477 38.301 11.606-8.418ZM268.276 584.354l-1.507-19.213 14.035 25.876-12.528-6.663Z"/><path fill="#DCBFBC" d="M798.644 57v915.885c0 31.365-25.427 56.785-56.782 56.785H303.377c-31.35 0-56.765-25.42-56.765-56.785V56.999c0-31.355 25.415-56.781 56.765-56.781h438.485c31.355 0 56.782 25.426 56.782 56.781Z"/><path fill="#F5E5DC" d="M754.356 57v915.885c0 31.365-25.415 56.785-56.781 56.785H303.377c-31.35 0-56.765-25.42-56.765-56.785V56.999c0-31.355 25.415-56.781 56.765-56.781h394.198c31.366 0 56.781 25.426 56.781 56.781Z"/><path fill="#fff" d="M734.063 101.304v789.02c0 8.953-7.253 16.224-16.206 16.224H283.112c-8.953 0-16.206-7.271-16.206-16.224v-789.02c0-8.96 7.253-16.207 16.206-16.207h434.745c8.953 0 16.206 7.248 16.206 16.207Z"/><path fill="#DCBFBC" d="M567.748 50.525H440.923c-8.106.153-6.258-10.596-6.389-15.769a6.392 6.392 0 0 1 6.389-6.395h126.825c8.112-.153 6.265 10.596 6.395 15.774a6.396 6.396 0 0 1-6.395 6.39ZM536.848 970.412c-.813 47.808-71.925 47.798-72.738 0 .818-47.806 71.931-47.8 72.738 0Z"/><path fill="#3884AA" d="M658.534 705.546v50.2c0 12.676-10.277 22.953-22.954 22.953H397.585c-12.676 0-22.948-10.277-22.948-22.953v-50.2c0-12.665 10.272-22.942 22.948-22.942H635.58c12.677 0 22.954 10.277 22.954 22.942Z"/><path fill="#4AA5DF" d="M642.43 705.546v50.2c0 12.676-10.277 22.953-22.954 22.953H381.481c-12.676 0-22.948-10.277-22.948-22.953v-50.2c0-12.665 10.272-22.942 22.948-22.942h237.995c12.677 0 22.954 10.277 22.954 22.942Z"/><path fill="#fff" d="M432.709 757.849c-2.365-2.621-3.541-6.384-3.541-11.284v-3.462h8.992v4.156c0 3.922 1.643 5.877 4.929 5.877 1.614 0 2.842-.471 3.678-1.426.835-.95 1.256-2.49 1.256-4.628 0-2.535-.58-4.769-1.734-6.701-1.154-1.933-3.285-4.252-6.4-6.964-3.923-3.456-6.657-6.588-8.214-9.385-1.558-2.791-2.337-5.951-2.337-9.47 0-4.781 1.211-8.487 3.633-11.113 2.421-2.621 5.94-3.934 10.55-3.934 4.553 0 8.004 1.313 10.34 3.934 2.33 2.626 3.501 6.389 3.501 11.289v2.507h-8.998v-3.115c0-2.075-.404-3.587-1.211-4.536-.807-.955-1.989-1.433-3.541-1.433-3.172 0-4.758 1.933-4.758 5.798 0 2.189.591 4.235 1.774 6.14 1.176 1.904 3.325 4.212 6.44 6.917 3.979 3.462 6.719 6.606 8.22 9.431 1.495 2.825 2.245 6.139 2.245 9.942 0 4.962-1.222 8.771-3.672 11.42-2.456 2.655-6.014 3.979-10.681 3.979-4.616 0-8.106-1.313-10.471-3.939ZM468.908 757.894c-2.394-2.592-3.593-6.253-3.593-10.982v-32.521c0-4.729 1.199-8.39 3.593-10.982 2.393-2.598 5.866-3.894 10.419-3.894 4.553 0 8.032 1.296 10.425 3.894 2.388 2.592 3.587 6.253 3.587 10.982v6.401h-8.993v-7.009c0-3.746-1.586-5.622-4.757-5.622-3.172 0-4.758 1.876-4.758 5.622V747.6c0 3.695 1.586 5.536 4.758 5.536 3.171 0 4.757-1.841 4.757-5.536v-9.249h8.993v8.561c0 4.729-1.199 8.39-3.587 10.982-2.393 2.598-5.872 3.894-10.425 3.894-4.553 0-8.026-1.296-10.419-3.894ZM519.72 740.858l-4.24-29.928h-.171l-4.155 29.928h8.566Zm-10.379-40.479h12.886l9.857 60.545h-9.51l-1.734-12.022v.17h-10.811l-1.728 11.852h-8.823l9.863-60.545ZM539.61 700.379h11.932l9.254 36.239h.176v-36.239h8.476v60.545h-9.772l-11.42-44.196h-.17v44.196h-8.476v-60.545Z"/><path fill="#4AA5DF" d="M654.021 197.001h-25.245v10.186h25.245c8.498 0 15.416 6.93 15.416 15.428v25.244h10.192v-25.244c0-14.126-11.494-25.614-25.608-25.614Zm15.416 324.973c0 8.498-6.918 15.41-15.416 15.41h-25.245v10.192h25.245c14.114 0 25.608-11.488 25.608-25.602v-25.251h-10.192v25.251ZM354.668 197.001c-14.132 0-25.62 11.488-25.62 25.614v25.244h10.192v-25.244c0-8.498 6.929-15.428 15.428-15.428h25.244v-10.186h-25.244ZM339.24 521.974v-25.251h-10.192v25.251c0 14.114 11.488 25.602 25.62 25.602h25.244v-10.192h-25.244c-8.499 0-15.428-6.912-15.428-15.41Z"/><path fill="#3B393D" d="M392.571 254.391h64.916v64.921h-64.916v-64.921Zm83.544 83.572V235.649h-102.2v102.507h18.543v18.537c6.184 0 12.369.006 18.554.006v-18.736h65.103ZM411.012 356.699v.08l.085-.08h-.085ZM392.458 356.779v-.086h-.08l.08.086ZM448.324 375.452h.08l-.08-.085v.085ZM457.493 412.935v64.922h-64.927v-64.922h64.927Zm-27.836-18.764h-55.702v102.246h102.24V393.995h-27.871v-18.543c-6.224.034-12.443.074-18.662.108-.006 6.139-.005 12.273-.005 18.611ZM616.032 319.25h-64.911v-64.956h64.911v64.956Zm18.639-83.595H532.442v102.234h102.229V235.655Z"/><path fill="#3B393D" d="M448.404 375.452v-.085h-.08l.08.085ZM513.502 356.642v-27.717h-18.554v27.922h-46.544v18.52h83.976v18.639h18.531v-37.364h-37.409ZM550.911 394.006v.079l.079-.079h-.079ZM532.311 445.262c.034 10.926.103 21.851.16 32.782h18.258v-55.855h-18.423c0 7.794-.017 15.434.005 23.073ZM588.235 478.039h.079v-.086l-.079.086ZM588.314 496.45h46.363v-18.411h-46.363v18.411ZM616.089 440.794h-8.987v18.332h18.627v-18.553h8.982v-18.435h-18.622v18.656ZM495.204 440.874v37.068h18.4v-37.068h-18.4ZM513.604 477.942v.08l.085-.08h-.085ZM513.502 244.96h-18.293v27.615h18.293V244.96ZM513.519 394.216h-18.327v27.598h18.327v-27.598ZM634.756 370.023h-.017v-13.148h-18.287v.103h-46.68v18.292h46.663v18.946h-27.973v18.372h46.289v-14.967h.005v-27.598ZM495.232 309.962h18.292v-18.293h-18.292v18.293ZM392.458 356.779l-.08-.086v.086h.08ZM373.955 375.185h18.423v-18.406h-18.423v18.406ZM429.583 375.469v.085l.051-.051-.051.057h.079v-.091h-.079ZM411.012 356.779h.085v-.08l-.085.08ZM411.097 356.778v18.691h18.486c.005-6.208.005-12.409.005-18.691h-18.491ZM550.991 412.509h18.412v-18.424h-18.412v18.424ZM550.911 394.085h.079v-.079l-.079.079ZM588.03 422.189v-.102h-18.236v37.364h.029v18.338h18.412v-55.6h-.205ZM588.314 477.788h-.079v.251l.079-.251ZM532.374 478.124h.091l-.034-.028.04.028v-.08h-.097v.08Z"/><path fill="#3B393D" d="M513.689 496.462h18.691c0-6.23 0-12.284-.006-18.338-6.23-.04-12.46-.068-18.685-.102v18.44ZM513.604 478.022h.085v-.08l-.085.08ZM411.296 300.634h27.62v-27.621h-27.62v27.621ZM438.916 431.563h-27.62v27.615h27.62v-27.615ZM597.358 272.967h-27.615v27.615h27.615v-27.615Z"/><path fill="#4C934E" d="M886.462 766.762c-2.211 8.004-4.041 15.945-5.559 23.613-.154.773-.296 1.541-.443 2.302-3.292 17.309-4.986 33.123-5.85 45.027h-2.404c.04-.586.079-1.177.125-1.78a401.469 401.469 0 0 1 2.774-26.364c.233-1.683.489-3.394.75-5.122.37-2.364.768-4.809 1.2-7.333.244-1.415.5-2.859.767-4.32.148-.773.29-1.546.443-2.33 1.649-8.601 3.746-17.832 6.447-27.217.119.392.79 2.063 1.75 3.524Z"/><path fill="#5DBF69" d="M1032.02 662.026c-11.7.552-20.7 6.407-27.53 14.138-14.747 16.706-19.397 42.212-19.397 42.212-14.098-4.184-28.138-.619-28.138-.619 14.183 4.655 20.202 14.711 20.202 14.711-51.944 31.264-85.442 34.05-90.695 34.294l.501-2.194c.221-.859.466-1.717.704-2.564l1.387-5.144c.12-.427.211-.864.347-1.285l.41-1.262.812-2.535c2.064-6.787 4.667-13.376 7.43-19.896 2.831-6.491 6.162-12.767 9.868-18.804 7.6-11.96 16.968-22.857 27.973-31.872a127.242 127.242 0 0 1 17.525-12.154c3.098-1.745 6.259-3.399 9.51-4.865l2.445-1.08c.824-.33 1.648-.688 2.478-1.007 1.66-.648 3.342-1.25 5.048-1.745l-.034-.142s26.034-12.028 59.154 1.813Z"/><path fill="#478548" d="M1080 700.737s-40.26-27.819-75.51-24.568c6.84-7.736 15.83-13.591 27.53-14.137 15.12 6.31 31.71 18.014 47.98 38.705Z"/><path fill="#5DBF69" d="M972.627 660.128c-6.855 1.881-13.37 4.803-19.645 8.129a129.81 129.81 0 0 0-18.009 11.8c-11.317 8.885-21.06 19.737-29.024 31.742-.978 1.518-1.91 3.064-2.865 4.588l-.711 1.148-.358.58-.33.579-1.313 2.371-1.324 2.365-.648 1.182-.603 1.211-2.404 4.854c-2.985 6.566-5.645 13.302-7.578 20.248l-.75 2.592-.364 1.302c-.131.438-.221.875-.329 1.313l-1.234 5.258c-.136.614-.284 1.228-.421 1.848-4.138-15.297-17.763-75.831 18.696-98.961 28.519-18.104 65.889-5.343 69.214-4.149Z"/><path fill="#4C934E" d="M972.905 660.355a60.255 60.255 0 0 0-5.053 1.745c-.83.324-1.654.682-2.479 1.007l-2.444 1.074c-3.246 1.472-6.412 3.126-9.504 4.871a126.84 126.84 0 0 0-17.531 12.159c-8.481 6.941-15.996 15.013-22.47 23.835a137.949 137.949 0 0 0-5.503 8.032c-3.701 6.043-7.043 12.313-9.868 18.81-2.757 6.514-5.366 13.103-7.424 19.884l-.813 2.547-.415 1.256c-.136.421-.227.864-.352 1.29l-.586 2.178-.801 2.955c-.233.853-.478 1.717-.699 2.57l-.501 2.194a2.56 2.56 0 0 1-.17-.25c-.961-1.461-1.41-2.751-1.524-3.149-.022-.051-.028-.08-.039-.103l-.018-.022c.143-.62.285-1.24.421-1.848l1.234-5.258c.119-.443.21-.875.329-1.319l.364-1.296.756-2.592c1.939-6.952 4.587-13.682 7.577-20.248l2.399-4.854.603-1.205.648-1.188 1.324-2.365 1.319-2.371.33-.579.358-.58.711-1.148c.96-1.53 1.887-3.064 2.865-4.582 7.963-12.011 17.712-22.857 29.024-31.748a129.99 129.99 0 0 1 18.008-11.806c6.27-3.32 12.79-6.242 19.651-8.123.057-.017.137-.046.194-.063l.079.29Z"/><path fill="#DAD9D8" d="M935.934 837.704v146.572c0 20.244-16.4 36.644-36.642 36.644h-26.535c20.237 0 36.642-16.4 36.642-36.644V837.704h26.535Z"/><path fill="#F1F1F1" d="M909.399 837.704v146.572c0 20.244-16.405 36.644-36.642 36.644h-52.626c-20.242 0-36.642-16.4-36.642-36.644V837.704h125.91Z"/><path fill="#4C934E" d="M875.213 824.453a262.594 262.594 0 0 1-2.78 9.965 327.559 327.559 0 0 1-.983 3.286h-4.513c3.274-10.471 6.241-21.726 8.248-33.055 1.125-6.31 1.944-12.637 2.364-18.85.7-10.402.279-20.492-1.784-29.655a62.685 62.685 0 0 0-1.058-4.065c-2.933-10.135-8.123-18.963-16.314-25.551-26.524-21.368-50.995-.267-51.234-.057a2.11 2.11 0 0 1-2.797-3.161c.268-.238 27.405-23.641 56.668-.057 8.436 6.788 14.354 16.161 17.713 27.9.392 1.335.745 2.7 1.04 4.087a82.062 82.062 0 0 1 1.365 7.594c2.273 16.923.307 37.608-5.935 61.619Z"/><path fill="#5DBF69" d="M869.256 893.814c-4.269 24.193-36.523 49.324-36.523 49.324l-17.07-14.222 5.696 22.283c-23.238 14.228-63.552 11.374-63.552 11.374 25.136-87.25 74.926-126.131 74.926-126.131 44.106 3.791 40.792 33.191 36.523 57.372Z"/><path fill="#4C934E" d="M832.733 836.442s-49.79 38.881-74.926 126.131c-46.476-72.55 9.482-138.472 33.674-145.106 24.182-6.639 41.252 18.975 41.252 18.975Z"/><path fill="#478548" d="M931.904 774.908a2.13 2.13 0 0 1-2.985-.142c-.193-.239-18.269-19.72-41.49-20.1a39.956 39.956 0 0 0-4.86.199c-.933.096-1.859.221-2.786.375a45.191 45.191 0 0 0-4.019.904c-23.766 6.588-43.77 33.987-59.612 81.56h-4.428c16.445-49.881 37.574-78.639 62.983-85.625a52.95 52.95 0 0 1 1.222-.324c.944-.239 1.87-.432 2.814-.602a38.06 38.06 0 0 1 4.639-.592 44.036 44.036 0 0 1 4.865-.142c24.551.677 42.912 20.521 43.793 21.51.79.853.733 2.189-.136 2.979Z"/><path fill="#5DBF69" d="M822.575 811.39c-14.45-2.433-2.336-33.64-7.077-45.202a45.407 45.407 0 0 1-.807-2.064c-4.093-11.312 12.841-18.087 17.332-6.94.142.346.273.71.398 1.074 4.445 13.375 4.604 55.548-9.846 53.132Zm9.118-82.469c-9.567-5.412-16.263-7.833-17.753-8.356-33.998 16.297-70.526 59.55-93.656 90.643-18.457 24.841-44.651 52.905-57.185 65.962.022.069.028.097.028.097s40.081 3.314 50-20.85c9.914-24.159 9.812-31.344 20.26-30.23 10.442 1.108 1.051 40.592-8.459 46.538 0 0 40.575 2.206 49.875-30.252 9.317-32.458 3.138-43.469 13.586-45.618 10.442-2.166 12.938 47.624 1.415 62.62 0 0 44.47-13.472 57.572-55.6 13.092-42.127-4.786-68.775-15.683-74.954Z"/><path fill="#4C934E" d="M708.943 722.474c-4.223 2.183-10.43 2.263-13.443-.199-3.718-3.012 2.819-6.969 8.396-9.578 6.417-2.995 11.323 6.52 5.047 9.777Zm104.685-2s-6.316-58.664-72.34-45.544c-.921.188-1.188 1.41-.404 1.955 7.47 5.185 31.901 23.199 24.386 31.259-8.827 9.493-45.111-24.602-66.911-8.663-21.822 15.933-26.421 33.601-26.421 33.601s63.682-2.604 60.681 11.124c-3.013 13.728-38.404-.614-53.934 8.447-15.524 9.061-22.533 16.064-23.96 39.859 0 0 33.595-8.077 44.771.972 11.176 9.033-5.901 8.277-20.447 11.596-14.552 3.303-24.807 22.039-24.835 32.828-.017 10.431 8.316 37.466 8.885 39.268 12.534-13.057 38.728-41.121 57.185-65.962 23.13-31.099 59.658-74.352 93.656-90.644-.21-.057-.312-.096-.312-.096ZM897.939 796.122c.273-.244.54-.495.813-.722 8.737-7.333 19.896 5.895 11.426 13.546a45.17 45.17 0 0 1-1.597 1.37c-9.13 7.572-12.898 39.114-26.092 34.703-13.182-4.422 5.764-39.671 15.45-48.897Zm-32.873 31.543c-7.81 41.132 23.432 72.249 23.432 72.249-2.968-17.696 21.327-58.294 29.115-51.819 7.793 6.457-2.296 12.926-8.97 44.27-6.685 31.332 28.291 47.584 28.291 47.584-5.32-9.22 4.423-46.487 13.666-42.758 9.248 3.735 5.957 9.703 3.49 34.362-2.467 24.665 32.583 39.769 32.583 39.769l.068-.069c-4.678-16.53-14.103-51.717-18.485-80.764-5.503-36.363-16.815-88.887-38.023-117.696-1.478-.227-8.169-1.188-18.6-.921-11.88.313-38.745 14.666-46.567 55.793Z"/><path fill="#478548" d="M1025.92 815.278c3.51 4.679 7.22 10.903 2.76 11.773-3.62.716-8.78-2.115-11.35-5.827-3.8-5.531 4.55-11.317 8.59-5.946Zm-95.688-42.485c21.209 28.814 32.521 81.338 38.024 117.702 4.382 29.041 13.807 64.228 18.48 80.764 1.284-1.262 20.324-20.191 24.964-28.934 4.78-9.049 4.55-29.32-6.17-38.574-10.706-9.266-25.343-16.252-11.956-18.833 13.396-2.597 37.936 19.151 37.936 19.151 9.42-20.566 6.67-29.559-2.29-44.071-8.97-14.518-45.014-18.287-41.416-31.134 3.616-12.841 55.796 17.747 55.796 17.747s4.02-16.849-7.14-39.933c-11.16-23.073-56.762-10.692-59.922-22.584-2.7-10.102 25.802-14.297 34.372-15.308.9-.108 1.22-1.251.54-1.819-49.459-40.434-80.916 5.889-80.916 5.889s-.103-.012-.302-.063Z"/></svg>