<svg xmlns="http://www.w3.org/2000/svg" width="459" height="441" fill="none"><path fill="#EBEBEB" d="M109.513 156.642v7.497h7.496v-14.993h-7.496v7.496ZM117.009 111.666h-7.496v7.496h7.496v-7.496ZM163.331 194.199h-7.496v7.496h7.496v-7.496ZM117.009 126.658v7.496h-7.496v7.496h7.496v7.496h14.993v7.496h7.496v-7.496h7.496v-14.992h-7.496v7.496h-14.992v-22.488h-7.497v7.496ZM132.002 111.666h-7.496v7.496h14.992v-7.496h-7.496ZM165.734 171.927h4.028v-7.496h-8.055v7.496h4.027ZM146.994 119.162h-7.496v7.496h7.496v-7.496ZM199.467 149.146h-7.496v7.496h7.496v-7.496ZM206.963 66.689h-7.496v7.496h7.496v-7.496Z"/><path fill="#EBEBEB" d="M161.986 126.658v-7.496h7.496v-7.496h-7.496v-7.496h-7.496v7.496h-7.496v7.496h7.496v29.984h7.496v-14.992h7.496v-7.496h-7.496ZM199.467 201.619h7.496v-7.496h-14.992v7.496h7.496ZM191.971 66.689h-7.496v7.496h7.496v-7.496Z"/><path fill="#EBEBEB" d="M190.097 126.658v-7.496h-7.496v-7.496h-7.497v14.992h-7.496v7.496h14.993v-7.496h7.496ZM232.407 111.666h-7.496v7.496h7.496v-7.496ZM154.706 149.146h-7.496v7.496h7.496v-7.496ZM184.475 104.17v-7.496h7.496v-7.497h14.992v-7.496h-7.496v-7.496h-7.496v7.496h-7.496v7.496h-7.496v7.497h-7.496v7.496h14.992ZM184.475 156.642v-7.496h7.496v-7.496h-14.992v7.496h-7.497v7.496h14.993ZM206.963 186.623v-7.496h-14.992v-7.496h-7.496v7.496h-7.496v7.496h-14.993v7.496h22.489v-7.496h7.496v7.496h7.496v-7.496h7.496ZM176.979 74.185v-7.496h-14.993v7.496h-7.496v7.496h14.993v-7.496h7.496Z"/><path fill="#EBEBEB" d="M176.979 81.681h-7.496v7.496h7.496v-7.496ZM195.719 111.666h-7.496v22.488h14.992v-7.496h-7.496v-7.496h7.496v-7.496h7.496v-7.496h-7.496v-7.496h-7.496v14.992ZM169.482 89.177h-7.496v7.496h7.496v-7.496ZM191.971 164.139v7.496h14.992v-7.496h14.992v-7.497h-22.488v7.497h-7.496ZM232.407 134.154h-7.496v7.496h7.496v-7.496ZM206.963 141.65h-7.496v7.496h7.496v-7.496ZM225.703 119.162h-14.992v7.496h7.496v7.496h7.496v-14.992ZM221.955 141.65h-7.496v7.496h7.496v-7.496ZM139.498 186.767h22.497v-30.133h-30.133v7.505h-7.355v7.496h7.355v7.496h-7.355v7.496h7.355v.14h.141v7.356h-7.496v14.992h7.496v-7.496h7.496v-7.496l-.001-7.356Zm16.726-24.362v18.74h-18.74v-18.74h18.74ZM236.947 156.642h7.497v-7.496h-22.489v7.496h14.992ZM236.947 126.658h7.497v-14.992h-7.497v14.992ZM177.258 164.431h-7.496v14.992h7.496v-14.992ZM251.94 156.642h-7.496v7.496h7.496v-7.496ZM251.94 141.65v-7.496h-7.496v14.992h7.496v-7.496ZM117.01 194.123h-7.497v14.992h7.497v-14.992ZM251.94 104.17V66.689h-37.48v37.481h37.48Zm-31.859-5.622V72.311h26.236v26.237h-26.236Z"/><path fill="#EBEBEB" d="M240.695 77.933h-14.992v14.992h14.992V77.933ZM251.94 171.635h-37.48v37.481h37.48v-37.481Zm-31.859 31.858v-26.237h26.236v26.237h-26.236Z"/><path fill="#EBEBEB" d="M240.695 182.879h-14.992v14.992h14.992v-14.992ZM109.42 66.689v37.481h37.48V66.689h-37.48Zm31.858 5.622v26.237h-26.236V72.311h26.236Z"/><path fill="#EBEBEB" d="M135.656 77.933h-14.992v14.992h14.992V77.933ZM49.61 213.499a3.548 3.548 0 1 1-7.097-.032 3.548 3.548 0 0 1 7.097.032Z"/><path fill="#EBEBEB" d="M38.97 208.938c3.896-4.092 10.23-4.216 14.226-.188 1.811 1.826 4.647-.983 2.835-2.809-5.484-5.527-14.485-5.494-19.87.162-1.77 1.859 1.033 4.699 2.808 2.835ZM26.917 192.421c5.396-4.665 11.837-7.601 19.05-7.618 7.149-.018 14.199 2.52 19.435 7.437 1.87 1.757 4.712-1.046 2.835-2.809-5.998-5.633-14.042-8.64-22.252-8.62-8.3.021-15.677 3.413-21.878 8.774-1.946 1.683.874 4.51 2.81 2.836Z"/><path fill="#EBEBEB" d="M31.673 201.574c3.617-3.911 8.687-6.36 14.044-6.482 5.504-.126 10.817 2.141 14.643 6.072 1.795 1.843 4.629-.966 2.835-2.809-4.528-4.652-10.944-7.403-17.46-7.254-6.373.146-12.549 2.964-16.872 7.638-1.74 1.882 1.062 4.726 2.81 2.835ZM203.101 19.435c.604-4.387-5.588-7.996-10.24-8.371-2.219-.179-4.523.16-6.625-.572-4.554-1.587-6.373-7.471-10.817-9.345-3.322-1.401-7.147-.154-10.367 1.467-3.221 1.621-6.403 3.661-10.001 3.891-3.13.2-6.528-.96-9.267.569-2.04 1.139-3.109 3.49-4.99 4.878-1.84 1.357-4.24 1.645-6.523 1.769-2.283.124-4.646.147-6.725 1.099-2.079.952-3.798 3.15-3.367 5.395l78.922-.78Z"/><path fill="#F5F5F5" d="M83.643 93.549c.54-3.933-5.01-7.168-9.18-7.504-1.988-.16-4.054.144-5.938-.513-4.082-1.423-5.713-6.697-9.696-8.377-2.978-1.256-6.406-.138-9.293 1.315-2.887 1.453-5.74 3.282-8.965 3.488-2.806.18-5.852-.861-8.307.51-1.83 1.021-2.787 3.129-4.473 4.372-1.65 1.217-3.801 1.474-5.847 1.586-2.046.111-4.165.132-6.028.985-1.863.853-3.405 2.824-3.018 4.836l70.745-.698ZM458.379 90.767c.58-4.211-5.363-7.675-9.829-8.035-2.13-.172-4.342.154-6.359-.549-4.371-1.523-6.117-7.171-10.382-8.97-3.189-1.345-6.86-.148-9.951 1.408-3.091 1.556-6.146 3.514-9.6 3.735-3.004.192-6.266-.922-8.895.546-1.958 1.093-2.984 3.35-4.79 4.682-1.766 1.303-4.07 1.578-6.261 1.698-2.191.119-4.46.141-6.455 1.055-1.995.914-3.646 3.023-3.232 5.178l75.754-.748Z"/><path fill="#127BBF" d="M449.462 440.057c0 .144-100.503.26-224.452.26-123.991 0-224.473-.117-224.473-.26 0-.144 100.482-.26 224.473-.26 123.949-.001 224.452.116 224.452.26Z"/><path fill="#FF725E" d="M395.696 396.066c2.003.869 3.476 2.721 4.216 4.775.739 2.055.806 4.299.56 6.469-.476 4.198-2.861 8.436-5.43 11.79-3.535-3.085-4.348-8.467-4.589-11.223-.381-4.356 1.575-12.46 5.243-11.811ZM399.151 426.03c-.566-2.373.421-4.976 2.243-6.598 1.821-1.623 4.366-2.309 6.798-2.123 1.125.086 2.34.414 2.984 1.34.602.866.535 2.074.046 3.008-.488.934-1.334 1.633-2.227 2.193-3.063 1.921-6.38 3.219-9.844 2.18Z"/><path fill="#127BBF" d="M394.618 438.901c-.021-.005.027-.311.126-.862l.428-2.331c.391-1.948.892-4.739 2.406-7.448 1.493-2.702 3.584-4.692 5.345-5.68.874-.506 1.639-.807 2.179-.964.267-.09.484-.124.628-.159.145-.03.222-.042.224-.031.025.068-1.225.293-2.92 1.34-1.699 1.017-3.72 2.987-5.189 5.643-1.484 2.653-2.017 5.405-2.461 7.342a98.198 98.198 0 0 1-.523 2.312c-.135.545-.223.843-.243.838Z"/><path fill="#127BBF" d="M394.751 402.37c.01 0 .025.129.043.376l.064 1.082c.05.94.105 2.301.16 3.983.109 3.364.194 8.013.173 13.148a371.385 371.385 0 0 1-.287 13.149 207.04 207.04 0 0 1-.194 3.981l-.074 1.081c-.02.247-.036.376-.047.376-.01 0-.015-.131-.015-.379l.016-1.083.097-3.983c.083-3.363.174-8.009.197-13.143.021-5.132-.03-9.778-.083-13.142l-.062-3.984-.007-1.084c.002-.248.008-.378.019-.378Z"/><path fill="#FF725E" d="M393.035 428.585c-.804-5.079-4.228-9.671-8.866-11.893-1.181-.566-2.724-.935-3.695-.057-.973.88-.755 2.46-.279 3.682 1.98 5.086 7.298 8.677 12.756 8.613"/><path fill="#127BBF" d="M384.742 420.674c.009-.019.275.098.75.327.238.113.53.253.848.452.318.198.701.392 1.079.677.386.272.816.562 1.235.929.44.342.867.756 1.314 1.194a18.017 18.017 0 0 1 2.497 3.208 17.74 17.74 0 0 1 1.645 3.719c.168.603.33 1.176.415 1.727.12.544.164 1.061.212 1.531.065.469.043.899.059 1.273.017.375-.007.697-.029.96-.038.526-.07.815-.091.813-.069-.003.051-1.168-.155-3.024-.061-.463-.117-.971-.246-1.504-.095-.541-.263-1.101-.436-1.693a18.398 18.398 0 0 0-1.638-3.645 18.768 18.768 0 0 0-2.436-3.168c-.435-.436-.849-.851-1.275-1.196-.405-.37-.823-.666-1.196-.947-1.518-1.089-2.583-1.574-2.552-1.633ZM127.056 440.07c-.079.011-.283-1.089-.684-2.847a64.757 64.757 0 0 0-1.929-6.763 64.642 64.642 0 0 0-2.687-6.501c-.777-1.627-1.3-2.617-1.231-2.657.055-.033.692.894 1.56 2.49.868 1.594 1.936 3.875 2.85 6.496.91 2.622 1.489 5.072 1.798 6.861.311 1.791.386 2.913.323 2.921ZM135.93 396.795c.035.008-.055.611-.247 1.695a257.55 257.55 0 0 0-.786 4.594 183.703 183.703 0 0 0-1.837 15.251 183.255 183.255 0 0 0-.506 15.355c.018 1.967.048 3.559.078 4.66.025 1.101.023 1.711-.013 1.713-.036.002-.101-.604-.189-1.703-.093-1.099-.179-2.692-.244-4.662-.133-3.94-.102-9.397.355-15.402.463-6.003 1.262-11.4 1.993-15.275.364-1.938.692-3.499.951-4.571.253-1.074.41-1.663.445-1.655ZM150.166 421.704c.064.055-.643.932-1.661 2.43a39.23 39.23 0 0 0-3.42 6.169 39.207 39.207 0 0 0-2.219 6.697c-.411 1.763-.577 2.878-.661 2.868-.059-.006-.023-1.14.301-2.943.32-1.801.98-4.263 2.102-6.831 1.128-2.564 2.491-4.718 3.598-6.174 1.106-1.46 1.915-2.256 1.96-2.216ZM324.508 424.962c.06-.035.575.72 1.318 1.993a65.371 65.371 0 0 1 2.656 5.109 65.688 65.688 0 0 1 2.211 5.318c.499 1.387.747 2.266.682 2.29-.07.026-.439-.807-1.024-2.154a208.611 208.611 0 0 0-2.341-5.234 205.86 205.86 0 0 0-2.509-5.154c-.657-1.313-1.058-2.131-.993-2.168ZM342.907 406.744c.035.01-.057.472-.253 1.298l-.811 3.498a134.464 134.464 0 0 0-2.085 11.646 134.784 134.784 0 0 0-1.014 11.789l-.126 3.588c-.026.848-.058 1.318-.093 1.318-.036 0-.073-.468-.109-1.318a65.891 65.891 0 0 1-.039-3.599c.032-3.04.26-7.243.866-11.847.612-4.602 1.484-8.72 2.244-11.663.379-1.472.714-2.656.974-3.465.253-.812.411-1.255.446-1.245ZM209.804 414.879c.024-.027.344.223.905.701.566.471 1.339 1.206 2.248 2.16 1.821 1.902 4.099 4.785 6.026 8.328 1.918 3.55 3.09 7.032 3.69 9.596.303 1.282.497 2.331.582 3.063.094.73.129 1.135.094 1.14-.092.015-.342-1.591-1.033-4.111a45.445 45.445 0 0 0-3.791-9.44 45.372 45.372 0 0 0-5.84-8.327c-1.734-1.955-2.943-3.042-2.881-3.11ZM227.128 404.24c.036.002.049.508.043 1.42l-.012 3.862c.009 3.259.135 7.762.563 12.715.435 4.954 1.091 9.41 1.646 12.622l.68 3.801c.165.897.239 1.398.204 1.406-.035.008-.176-.477-.402-1.363a74.638 74.638 0 0 1-.844-3.777c-.649-3.203-1.366-7.671-1.802-12.644-.431-4.973-.498-9.496-.413-12.763.041-1.634.105-2.955.178-3.866.068-.913.123-1.415.159-1.413ZM242.433 425.442c.146.078-1.575 3.079-2.756 7.135-1.21 4.049-1.394 7.503-1.558 7.489-.065-.003-.102-.87.021-2.266.121-1.394.433-3.315 1.038-5.371.608-2.054 1.388-3.836 2.043-5.073.654-1.238 1.156-1.947 1.212-1.914Z"/><path fill="#455A64" d="M37.928 344.917H26.314v92.167h11.614v-92.167Z"/><path fill="#127BBF" d="M37.929 437.084s-.012-.169-.018-.482l-.018-1.383-.036-5.298-.076-19.543-.112-65.462.259.259-11.61.002h-.005l.26-.26-.142 92.167-.118-.118 8.61.067 2.233.028c.505.008.773.023.773.023s-.238.015-.73.023l-2.206.028-8.68.067-.117.001v-.119l-.142-92.167.26-.26h.006l11.61.002h.259l-.001.259-.112 65.648L38 430.049l-.036 5.24-.018 1.349c-.005.301-.017.446-.017.446Z"/><path fill="#000" d="M37.929 347.157H26.314v3.837h11.615v-3.837Z" opacity=".3"/><path fill="#455A64" d="M284.93 344.917h-11.615v92.167h11.615v-92.167Z"/><path fill="#127BBF" d="M284.931 437.084s-.012-.169-.018-.482l-.017-1.383-.036-5.298-.076-19.543-.112-65.462.259.259-11.61.002h-.004l.259-.26-.143 92.167-.118-.118 8.61.067 2.232.028c.506.008.774.023.774.023s-.238.015-.73.023l-2.206.028-8.679.067-.118.001v-.119l-.142-92.167.261-.26h.005l11.61.002h.259v.259l-.112 65.648-.076 19.483-.036 5.24-.017 1.349a8.5 8.5 0 0 1-.019.446Z"/><path fill="#455A64" d="M266.736 264.178h-11.615v76.829h11.615v-76.829Z"/><path fill="#127BBF" d="M266.736 341.008a3.585 3.585 0 0 1-.017-.403l-.017-1.151-.035-4.408-.076-16.264-.113-54.603.258.258-11.611.002c.512-.521.142-.13.256-.24v6.138l-.002 6.049-.007 11.697-.027 21.388-.096 31.537-.127-.127 8.591.072 2.244.03c.507.008.779.025.779.025s-.24.016-.734.025l-2.215.03-8.665.072-.127.001v-.128l-.096-31.537-.027-21.388-.007-11.697-.002-6.049V264.199c.118-.122-.264.24.265-.28l11.611.002h.259l-.001.258-.113 54.788-.076 16.205-.035 4.35-.017 1.118c-.008.249-.014.373-.02.368Z"/><path fill="#455A64" d="M60.158 264.178H48.543v76.829h11.615v-76.829Z"/><path fill="#127BBF" d="M60.158 341.008a3.585 3.585 0 0 1-.017-.403l-.017-1.151-.035-4.408-.076-16.264-.113-54.603.258.258-11.61.002c.511-.521.141-.13.255-.24v6.138c0 2.036 0 4.053-.002 6.049l-.007 11.697-.027 21.388-.096 31.537-.127-.127 8.591.072 2.244.03c.506.008.78.025.78.025s-.24.016-.735.025l-2.215.03-8.666.072-.127.001v-.128l-.096-31.537-.027-21.388-.007-11.697c0-1.996 0-4.013-.002-6.049V264.199c.118-.122-.264.24.265-.28l11.611.002h.26l-.002.258-.113 54.788-.076 16.205-.035 4.35-.017 1.118a3.288 3.288 0 0 1-.019.368Z"/><path fill="#455A64" d="M289.142 255.412H25.631v12.298h263.511v-12.298Z"/><path fill="#127BBF" d="M289.142 267.711s-.009-.251-.014-.749l-.017-2.261-.042-9.288.073.073-263.498.187h-.013l.26-.26v12.298l-.26-.26 186.703.108 56.21.079 15.26.037 3.973.018c.896.005 1.365.018 1.365.018s-.444.012-1.329.018l-3.938.018-15.199.037-56.149.079-186.896.108h-.26v-12.818h.273l263.498.187h.074v.073l-.042 9.33-.017 2.244c-.006.491-.015.724-.015.724Z"/><path fill="#455A64" d="M289.824 273.86H26.314v12.298h263.51V273.86Z"/><path fill="#127BBF" d="M289.825 286.158s-.009-.251-.014-.749l-.017-2.261-.043-9.288.073.073-263.498.187h-.013l.26-.26v12.298l-.26-.26 186.703.108 56.21.079 15.26.037 3.973.018c.898.006 1.366.018 1.366.018s-.444.012-1.328.018l-3.938.018-15.2.037-56.149.079-186.896.108h-.26V273.6h.273l263.498.187h.074v.073l-.043 9.33-.017 2.244c-.005.491-.014.724-.014.724Z"/><path fill="#455A64" d="M289.824 292.991H26.314v12.298h263.51v-12.298Z"/><path fill="#127BBF" d="M289.825 305.289s-.009-.251-.014-.749l-.017-2.261-.043-9.288.073.073-263.498.187h-.013l.26-.26v12.298l-.26-.26 186.703.108 56.21.079 15.26.037 3.973.018c.898.006 1.366.018 1.366.018s-.444.012-1.328.018l-3.938.018-15.2.037-56.149.078-186.896.108h-.26V292.73h.273l263.498.187h.074v.073l-.043 9.33-.017 2.244c-.005.492-.014.725-.014.725Z"/><path fill="#455A64" d="M289.824 312.122H26.314v12.298h263.51v-12.298Z"/><path fill="#127BBF" d="M289.825 324.421s-.009-.251-.014-.749l-.017-2.261-.043-9.288.073.073-263.498.187h-.013l.26-.26v12.298l-.26-.26 186.703.108 56.21.079 15.26.037 3.973.018c.898.005 1.366.018 1.366.018s-.444.012-1.328.018l-3.938.018-15.2.037-56.149.079-186.896.108h-.26v-12.818h.273l263.498.187h.074v.073l-.043 9.33-.017 2.244c-.005.491-.014.724-.014.724Z"/><path fill="#455A64" d="M294.616 334.858H14.868v12.298h279.748v-12.298Z"/><path fill="#127BBF" d="M294.616 347.157s-.009-.25-.014-.747l-.016-2.257-.041-9.294.071.071-279.734.189h-.014l.26-.26v12.298l-.26-.26 198.187.108 59.688.079 16.205.037 4.219.018c.952.005 1.449.018 1.449.018s-.472.012-1.412.018l-4.184.018-16.145.037-59.627.079-198.38.108h-.26v-12.818h.274l279.734.189h.072v.071l-.041 9.335-.017 2.241c-.006.489-.014.722-.014.722Z"/><path fill="#000" d="M284.931 347.157h-11.615v3.837h11.615v-3.837Z" opacity=".3"/><path fill="#BCBCBC" d="m143.306 193.32-2.509 16.193-6.459 14.74-9.572-6.113-3.402-8.603-2.854-7.215s-10.11 2.432-14.137-7.02c-1.944-4.564-5.183-14.288-8.012-23.124-3.043-9.502 1.72-19.747 10.947-23.544l.917-.377c10.122-3.49 18.74 3.157 21.949 13.372l13.132 31.691Z"/><path fill="#7A4A45" d="M118.497 202.321s6.205-1.982 10.937-8.616c0 0-.114 8.042-9.947 11.087l-.99-2.471Z"/><path fill="#127BBF" d="M102.536 179.429c.269.727 1.107 1.098 1.871.831.763-.267 1.165-1.072.895-1.799-.27-.727-1.107-1.099-1.87-.832-.764.267-1.165 1.073-.896 1.8ZM99.968 175.543c.241.108.955-1.076 2.417-1.673 1.451-.617 2.832-.307 2.916-.551.045-.111-.258-.36-.864-.508-.599-.149-1.517-.156-2.425.222-.907.379-1.535 1.029-1.833 1.552-.306.53-.327.912-.211.958ZM115.271 173.751c.269.727 1.107 1.098 1.872.83.763-.267 1.165-1.072.895-1.799-.27-.727-1.108-1.099-1.87-.832-.765.269-1.167 1.075-.897 1.801ZM114.347 169.145c.228.133 1.068-.966 2.585-1.401 1.509-.456 2.848.002 2.959-.232.057-.106-.215-.386-.804-.598-.579-.214-1.491-.32-2.435-.042-.943.279-1.637.857-1.991 1.344-.361.493-.424.872-.314.929ZM113.934 183.358c-.027-.086-.999.131-2.547.548-.389.115-.772.186-.939-.042-.199-.233-.208-.699-.206-1.207l-.066-3.292c-.132-4.672-.391-8.451-.579-8.445-.188.007-.234 3.799-.102 8.471.042 1.148.08 2.243.119 3.29.034.482-.012 1.062.409 1.543.215.237.572.327.837.293.269-.025.48-.108.669-.173 1.513-.53 2.434-.901 2.405-.986ZM111.555 162.929c.307.338 1.688-.45 3.485-.949 1.788-.535 3.376-.601 3.456-1.051.031-.212-.363-.486-1.08-.641-.711-.156-1.745-.157-2.82.152-1.074.311-1.949.861-2.468 1.372-.525.512-.713.954-.573 1.117ZM97.883 169.798c.393.226 1.257-.532 2.46-1.046 1.185-.556 2.325-.696 2.418-1.14.034-.211-.264-.477-.84-.606-.57-.131-1.413-.083-2.233.284-.82.368-1.417.965-1.698 1.478-.287.516-.287.915-.107 1.03Z"/><path fill="#BCBCBC" d="M132.292 168.984c.133-.137 5.733-4.617 8.198 1.964 2.465 6.581-4.65 7.698-4.732 7.514-.081-.185-3.466-9.478-3.466-9.478Z"/><path fill="#7A4A45" d="M136.835 175.215c.021-.032.145.037.372.054a1.23 1.23 0 0 0 .863-.303c.6-.516.771-1.839.359-3.037a4.053 4.053 0 0 0-.936-1.521c-.381-.406-.819-.626-1.192-.557a.624.624 0 0 0-.559.568c-.019.217.072.333.041.357-.012.023-.183-.057-.231-.349a.779.779 0 0 1 .104-.509.925.925 0 0 1 .571-.405c.521-.155 1.152.141 1.58.572a4.15 4.15 0 0 1 1.084 1.685c.455 1.342.241 2.837-.608 3.468-.418.294-.856.299-1.114.219-.263-.087-.352-.221-.334-.242Z"/><path fill="#127BBF" d="M90.745 161.527c-.233-1.375.204-2.962 1.402-3.677-1.035-.993-1.266-2.72-.528-3.951.738-1.23 2.37-1.839 3.734-1.393-.895-1.948.88-4.545 3.02-4.417-.542-1.12-.208-2.594.764-3.371.972-.777 2.484-.777 3.456 0 .399-2.889 4.074-4.764 6.647-3.39 2.21-1.993 5.987-1.897 8.093.207 2.168-.761 4.774-.034 6.234 1.74 1.408-.448 3.043-.09 4.136.904 1.093.995 1.602 2.589 1.288 4.033 1.97.115 3.381 2.576 2.485 4.334 1.158.076 2.239.865 2.664 1.945.426 1.079.175 2.393-.619 3.24 1.005-.275 1.907.831 2.001 1.868.094 1.038-.293 2.061-.306 3.103-.011.858.231 1.701.273 2.559.077 1.612-.608 3.238-1.802 4.321l.25.125c.513.762-.412 1.813-1.331 1.805-.918-.008-1.697-.633-2.445-1.166-.857-.611-1.794-1.158-2.418-2.006-.624-.847-.838-2.117-.159-2.921-1.275.091-2.469-.755-3.16-1.83-.691-1.075-.975-2.354-1.246-3.602l-1.202-5.528c-2.378.912-5.252.357-7.121-1.373-1.147 1.991-4.251 2.461-5.936.899.206 2.637-2.016 5.222-4.654 5.415.811 1.238-1.088 3.481-2.264 4.38-1.176.899-3.218.648-3.218.648s-1.72 2.281-3.17 2.297c-1.422.016-3.713-.872-3.44-2.488.003 0-1.195-1.335-1.428-2.71Z"/><path fill="#455A64" d="M131.8 152.391c-.072.003.083.49-.298 1.104-.189.292-.527.585-.984.629-.447.053-1.008-.146-1.301-.587l-.238-.357-.191.39c-.274.561-.944 1.024-1.667 1.016-.815-.008-1.531-.634-1.72-1.308l-.113-.401-.292.292c-.369.37-.879.538-1.318.532a1.857 1.857 0 0 1-1.087-.373c-.539-.411-.66-.843-.722-.815-.039-.003-.027.492.533 1.04.276.26.71.514 1.259.554a2.24 2.24 0 0 0 1.676-.59l-.404-.109c.224.882 1.094 1.685 2.184 1.707a2.358 2.358 0 0 0 2.12-1.332l-.428.033a1.832 1.832 0 0 0 1.769.722 1.64 1.64 0 0 0 1.191-.893c.363-.788.058-1.291.031-1.254ZM135.343 158.209c-.049-.025-.157.278-.582.559-.389.268-1.248.504-1.918-.021l-.221-.173-.101.265a1.88 1.88 0 0 1-1.464 1.146c-.685.106-1.509-.303-1.84-1.016l-.195-.419-.265.384a1.22 1.22 0 0 1-.241.259c-.432.351-1.08.393-1.492.103-.431-.282-.654-.825-.586-1.271l.076-.502-.43.26a2.234 2.234 0 0 1-1.648.252 2.22 2.22 0 0 1-1.14-.69c-.51-.587-.55-1.09-.616-1.072-.033-.011-.105.531.396 1.249.249.345.667.716 1.258.892.581.175 1.32.152 1.99-.223l-.354-.243c-.11.637.165 1.359.766 1.774.612.431 1.506.373 2.111-.117.137-.11.257-.241.349-.378l-.459-.036c.451.943 1.49 1.433 2.392 1.281.905-.151 1.555-.811 1.779-1.495l-.322.092c.445.328.962.381 1.364.313.411-.062.729-.245.948-.429.444-.387.473-.744.445-.744ZM99.149 147.552c.042.021.102-.344.558-.723.225-.18.562-.35.97-.337.401.008.88.202 1.176.614l.24.335.058-.413c.103-.738.642-1.577 1.538-1.948.869-.376 2.118-.128 2.816.747l.3.376.126-.466c.23-.852.908-1.635 1.801-2.004.883-.385 1.992-.246 2.835.342.344.234.63.54.843.881l.153.245.23-.17c1.125-.829 2.788-.688 3.694.172.936.86 1.165 2.238.792 3.224l-.14.37.383-.084a3.313 3.313 0 0 1 2.46.441c.65.408 1.039.992 1.252 1.498.421 1.04.237 1.718.308 1.714.018.003.075-.152.102-.462a3.257 3.257 0 0 0-.184-1.339 3.412 3.412 0 0 0-1.289-1.697 3.634 3.634 0 0 0-2.739-.571l.243.285c.457-1.14.235-2.706-.853-3.74-1.082-1.033-2.983-1.217-4.345-.233l.382.075a3.474 3.474 0 0 0-.993-1.042c-.977-.685-2.289-.847-3.335-.384-1.042.442-1.811 1.348-2.072 2.358l.425-.09c-.871-1.051-2.328-1.299-3.362-.831-1.043.467-1.616 1.443-1.702 2.295l.298-.078a1.783 1.783 0 0 0-1.444-.676c-.486.014-.858.24-1.088.462a1.558 1.558 0 0 0-.4.61c-.05.154-.05.241-.037.244Z"/><path fill="#127BBF" d="M118.275 181.766c-.243.084.406 1.67-.488 3.353-.89 1.685-2.652 2.203-2.574 2.429.019.108.503.153 1.224-.121a4.271 4.271 0 0 0 2.185-1.938c.543-1.03.521-2.097.307-2.769-.211-.688-.549-1.008-.654-.954Z"/><path fill="#FF725E" d="m108.533 210.567-7.926 22.318 1.831 24.4 5.047 42.15s18.568-6.27 19.403-5.645c.834.626-8.214-42.734-8.214-42.734l6.546-35.275-.422-10.389-16.265 5.175Z"/><path fill="#FF725E" d="m108.533 210.567-8.718 20.012-17.959 7.065-18.91 5.815 2.692 13.551a4.895 4.895 0 0 0 6.07 3.775l15.933-4.275 14.843-.682 7.717-17.938-1.668-27.323Z"/><path fill="#BCBCBC" d="m69.15 237.891 1.32-1.638s2.442-.012 3.762.819c1.32.831 3.366 3.867 3.63 5.451.264 1.584 0 4.62 0 4.62l-9.042-9.252"/><path fill="#127BBF" d="M51.6 228.171c0 .273 16.972 18.284 16.972 18.284l3.195 3.154h10.265L62.23 227.626l-8.539-1.453-2.09 1.998ZM120.547 268.181c-.016.008-.15-.208-.389-.629l-1.011-1.861a191.176 191.176 0 0 1-3.493-6.96c-1.406-2.972-3.061-6.528-4.505-10.647-.345-1.036-.691-2.102-.931-3.232-.161-.551-.177-1.156-.266-1.742-.02-.583-.043-1.171-.045-1.764-.028-2.371.033-4.821.125-7.328.117-3.174.282-6.248.47-9.169l.01-.153.14-.061 5.265-2.31.066.452-4.047-.524-.332-.043.167-.287 6.308-10.861 1.793-3.018.487-.786c.113-.176.177-.264.187-.258.01.006-.033.105-.127.292l-.429.819-1.687 3.078-6.147 10.954-.165-.33 4.051.492.851.103-.785.349-5.253 2.337.15-.214a386.255 386.255 0 0 0-.453 9.155c-.092 2.502-.155 4.947-.135 7.303.001.589.022 1.172.039 1.748.087.559.092 1.116.249 1.661.227 1.097.564 2.154.898 3.18 1.406 4.092 3.024 7.66 4.384 10.645 1.372 2.983 2.537 5.372 3.34 7.024l.923 1.904c.209.44.312.672.297.681Z"/><path fill="#BCBCBC" d="M61.625 237.891s-2.574 1.86-2.508 2.916c.066 1.056.659 2.178 1.253 2.376.595.198 2.377 1.122 2.377 1.122s-1.584 1.518-1.122 3.102c.462 1.584 1.518 1.98 1.518 1.98s.066 2.046.66 3.234c.594 1.188 2.508 1.584 2.508 1.584s1.056 2.153 1.98 3.222c.924 1.069 2.772 1.398 2.772 1.398s2.376.264 3.63-.594 2.64-1.716 2.706-4.62c0 0 5.676-2.838 5.742-4.29.066-1.452-.594-1.914-.594-1.914l-2.838.528s-.396-1.518-1.254-1.65c-.858-.132-11.221 2.376-11.221 2.376s7.062-1.122 7.26-2.508c.198-1.386.264-2.574-.792-2.838-1.056-.264-8.579.542-8.579.542l-.394-1.334s2.042.066 2.042-1.716-1.122-2.178-1.122-2.178l-4.024-.738Z"/><path fill="#FAFAFA" d="m120.547 207.001.868 6.891-5.336 29.963 5.409 25.878 28.039 8.284 11.029-4.752-3.762-72.629-10.021-7.039-3.849-2.585-14.446 21.859-7.931-5.87Z"/><path fill="#FF725E" d="m145.953 193.046 7.007 3.129 24.821 3.337 13.389 70.421 1.682 8.085 25.666 38.41a3.655 3.655 0 0 1-1.226 5.204l-21.028 12.014a3.567 3.567 0 0 1-4.593-1.204l-26.717-40.261-13.246-16.953s-7.926-23.987-8.969-34.207c-1.043-10.22-.595-21.168 0-26.907.638-6.143 3.214-21.068 3.214-21.068Z"/><path fill="#FF725E" d="M177.781 199.512a12.108 12.108 0 0 1 6.27 8.471c1.579 8.358 6.343 22.94 8.129 38.508 2.498 21.781-3.355 28.501-6.12 32.257-2.705 3.676-19.883 11.747-19.883 11.747l-12.868-17.148 14.252-11.678-1.251-30.244s-5.006-6.883-2.503-17.103c2.502-10.221 9.803-15.436 13.974-14.81Z"/><path fill="#000" d="M191.061 269.355c-1.951 5.287-4.179 9.744-8.724 12.259-4.834 2.675-11.567 6.456-16.16 8.881l3.366 5.216c5.27-.807 14.986-6.952 18.157-11.237 3.171-4.285 4.128-9.843 3.361-15.119Z" opacity=".3"/><path fill="#127BBF" d="M165.961 233.03c.009-.001.041.152.093.452l.221 1.333.798 5.139 2.842 18.953.015.1-.077.068-16.389 14.447.033-.317 12.885 17.135-.319-.076c4.28-2.157 8.704-4.494 13.09-7.088 1.245-.749 2.478-1.502 3.662-2.306 1.19-.789 2.348-1.638 3.318-2.604 1.764-2.123 3.099-4.639 4.071-7.165 1.952-5.106 2.443-10.453 2.4-15.465-.071-5.033-.669-9.795-1.363-14.223a231.485 231.485 0 0 0-2.278-12.266c-1.577-7.466-3.09-13.456-4.155-17.589l-1.25-4.754-.325-1.237c-.071-.279-.104-.423-.095-.426 0 0 .059.137.147.411l.375 1.223c.322 1.077.78 2.671 1.345 4.73a341.177 341.177 0 0 1 4.319 17.564 223.468 223.468 0 0 1 2.344 12.275c.714 4.434 1.331 9.215 1.416 14.284.056 5.048-.426 10.458-2.404 15.654-.999 2.587-2.312 5.096-4.169 7.335-1.036 1.034-2.203 1.881-3.406 2.682-1.196.812-2.435 1.57-3.686 2.322-4.406 2.605-8.833 4.941-13.129 7.1l-.19.096-.129-.172-12.851-17.161-.131-.174.164-.143 16.451-14.377-.062.168-2.676-18.977-.699-5.154-.168-1.341c-.034-.3-.047-.455-.038-.456ZM147.831 258.869c-.018-.003.002-.243.055-.697l.257-1.982 1.042-7.273c.876-6.141 2.244-14.599 3.573-23.969l1.744-12.802.153.258-4.24-1.628-.412-.158.368-.239 4.261-2.759-.086.193-1.217-8.5-.303-2.322c-.063-.532-.087-.814-.068-.817.019-.003.081.273.18.799l.407 2.306 1.388 8.474.02.123-.106.07-4.23 2.806-.043-.397 4.252 1.596.179.067-.025.191-1.706 12.807c-1.329 9.372-2.756 17.828-3.725 23.956l-1.206 7.249-.354 1.966c-.086.451-.14.685-.158.682ZM174.021 200.456c.063.084-1.211.959-2.919 2.735-.861.88-1.785 2.022-2.705 3.361a28.31 28.31 0 0 0-2.484 4.653 28.23 28.23 0 0 0-1.485 5.063c-.281 1.6-.42 3.063-.421 4.294-.024 2.464.273 3.98.169 3.996-.035.007-.124-.367-.253-1.053a9.401 9.401 0 0 1-.177-1.259c-.041-.494-.119-1.057-.107-1.682-.046-1.251.057-2.744.317-4.38.293-1.63.762-3.399 1.475-5.176a26.535 26.535 0 0 1 2.57-4.727c.96-1.35 1.931-2.488 2.84-3.349.43-.455.88-.802 1.255-1.126.372-.329.717-.58 1.008-.775.571-.399.896-.604.917-.575ZM102.329 255.84c-.144.01-.603-4.843-1.027-10.839-.424-5.998-.651-10.866-.507-10.876.143-.01.603 4.842 1.027 10.84.424 5.995.651 10.865.507 10.875Z"/><path fill="#FF725E" d="m186.871 299.986 3.852 7.867 17.831-11.412-6.175-6.989-15.508 10.534Z"/><path fill="#127BBF" d="M186.871 299.986c-.027-.007.348-.287 1.069-.802l3.143-2.216 11.159-7.717.176-.122.144.162 6.188 6.978.202.228-.257.164-.78.5-17.09 10.85-.179.114-.089-.189-2.754-5.846-.716-1.569c-.159-.357-.234-.54-.216-.535.018.005.127.197.319.557l.817 1.561 2.884 5.667-.268-.075 17.01-10.975.78-.499-.055.391-6.163-7 .319.04-11.164 7.445-3.26 2.133-.888.565c-.204.129-.318.193-.331.19Z"/><path fill="#000" d="M187.043 300.338c.075.152 3.956 12.076 3.956 12.076l16.63-11.806-1.428-2.661-15.478 9.906-3.68-7.515ZM153.465 199.462l2.953 9.747-2.953 1.358 3.944 1.941s-6.217 33.999-7.001 37.102c-.784 3.103-1.736 4.1-1.736 4.1l6.07-41.53-4.246-1.612 4.246-2.783-1.277-8.323Z" opacity=".3"/><path fill="#127BBF" d="M87.67 252.589c-.172.005.146-3.22-1.129-6.896-1.227-3.693-3.442-6.057-3.302-6.159.043-.041.652.486 1.44 1.518.788 1.027 1.713 2.591 2.355 4.474.636 1.884.855 3.688.854 4.982.003 1.299-.158 2.088-.218 2.081Z"/><path fill="#000" d="M100.682 233.163c-2.965 7.393-1.895 15.508 1.575 22.677-.535-8.249-.852-14.679-1.575-22.677Z" opacity=".3"/><path fill="#127BBF" d="M143.832 199.206c.03.02-.159.368-.527.98l-1.548 2.594a129.306 129.306 0 0 0-4.73 8.754 125.15 125.15 0 0 0-2.954 6.5l-.116.275-.229-.183a34.697 34.697 0 0 1-3.719-3.432c-.83-.895-1.251-1.452-1.218-1.481.038-.034.525.461 1.404 1.297.879.834 2.16 2.002 3.809 3.263l-.345.092a91.523 91.523 0 0 1 2.901-6.56 89.325 89.325 0 0 1 4.884-8.718 59.844 59.844 0 0 1 1.692-2.512c.42-.579.666-.889.696-.869ZM127.411 213.023c.132.05-.61 2.312-1.666 5.089l-.133.349-.281-.245-.13-.113c-2.321-2.022-3.811-4.038-3.703-4.121.116-.098 1.762 1.74 4.046 3.729l.128.112-.413.104c1.064-2.774 2.02-4.954 2.152-4.904ZM130.345 264.174c-.018.001-.044-.167-.078-.489l-.123-1.408-.347-5.185a835.564 835.564 0 0 1-.846-17.122c-.257-6.692-.409-12.754-.409-17.144-.004-2.195.027-3.971.07-5.198l.072-1.412c.022-.323.042-.492.06-.491.018.001.033.17.045.493l.026 1.412.096 5.191c.095 4.384.304 10.439.562 17.128l.694 17.124.182 5.192.025 1.413c-.002.325-.011.495-.029.496Z"/><path fill="#FF725E" d="m71.801 399.216 2.588 24.418s-23.95 10.832-23.91 15.391l47.525-3.318-2.472-38.212-23.73 1.721Z"/><path fill="#E0E0E0" d="M88.941 420.549c.937.187 1.645 1.177 1.497 2.121-.149.944-1.149 1.673-2.09 1.502-.94-.17-1.827-1.332-1.573-2.254.253-.921 1.475-1.712 2.347-1.321M98.107 436.704l-.235-3.703-45.686 3.481s-2.05 1.069-1.708 2.542l47.63-2.32Z"/><path fill="#127BBF" d="M73.602 423.446c.024.232 1.192.256 2.385.922 1.212.635 1.87 1.599 2.077 1.493.211-.06-.232-1.423-1.692-2.205-1.452-.794-2.835-.42-2.77-.21ZM68.761 425.856c-.037.229.995.553 1.852 1.48.884.901 1.157 1.949 1.387 1.923.221.021.286-1.349-.8-2.481-1.077-1.142-2.449-1.144-2.439-.922ZM66.347 432.019c.214.035.456-1.147-.228-2.376-.676-1.235-1.805-1.66-1.89-1.459-.118.2.634.833 1.181 1.851.57 1.004.704 1.978.937 1.984ZM73.63 417.816c.112.205 1.154-.19 2.472-.192 1.318-.029 2.37.34 2.477.132.123-.177-.934-.967-2.486-.942-1.553.013-2.59.827-2.463 1.002Z"/><path fill="#FF725E" d="M63.338 300.686 41.327 311.57s-18.456-18.717-22.72-17.102l19.573 43.435 34.99-15.552-9.832-21.665Z"/><path fill="#E0E0E0" d="M49.261 324.153c.15.944-.534 1.951-1.47 2.139-.938.188-1.968-.499-2.133-1.44-.166-.941.618-2.175 1.57-2.257.952-.081 2.117.79 2.052 1.744M37.28 338.347l3.392-1.503-19.087-41.653s-1.713-1.555-2.976-.722l18.67 43.878Z"/><path fill="#127BBF" d="M41.23 310.767c-.208.103.174 1.206-.038 2.557-.177 1.357-.853 2.309-.681 2.466.13.177 1.255-.71 1.482-2.351.243-1.637-.588-2.806-.762-2.672ZM37.294 307.06c-.227.044-.174 1.125-.747 2.25-.54 1.141-1.427 1.76-1.323 1.967.057.214 1.365-.198 2.05-1.61.698-1.405.224-2.693.02-2.607ZM30.676 306.93c.042.213 1.234.031 2.15-1.037.924-1.062.932-2.268.714-2.279-.228-.041-.561.884-1.327 1.749-.744.883-1.611 1.346-1.537 1.567ZM46.523 308.843c-.153.176.578 1.017 1.036 2.253.484 1.226.502 2.34.733 2.369.21.054.584-1.211.023-2.659-.549-1.451-1.673-2.142-1.792-1.963ZM74.084 314.53s-7.882 1.606-9.488 10.071c-1.606 8.465 4.223 93.659 4.223 93.659l29.897-2.396-1.826-57.407-.736-11.572 2.562-1.964 52.55-9.246-7.996-21.728-8.788-15.293-40.255 10.039-20.143 5.837Z"/><path fill="#127BBF" d="M173.028 300.176s-21.742-31.429-28.097-36.002c-5.243-3.773-13.121-3.767-17.989-1.576s-81.053 39.955-81.053 39.955l11.169 27.96 72.465-25.113 10.801 16.951 10.053 13.323 28.238.221c1.338 0 7.4-11.978 7.4-11.978l-12.987-23.741Z"/><path fill="#455A64" d="M64.317 331.172c-.01 0-.014-.099-.014-.294l.01-.863.033-1.405c.049-.553.136-1.189.219-1.907.05-.724.3-1.496.47-2.36.084-.434.27-.859.41-1.316.146-.457.305-.928.54-1.389.824-1.876 2.166-3.916 4.272-5.481 1.05-.775 2.273-1.434 3.675-1.801l4.329-.733 9.53-1.594 21.847-3.618 19.845-3.251.158-.026.086.135c5.81 9.073 10.53 16.964 14.497 22.123l4.539 6.091 1.213 1.618.306.422c.067.096.099.147.093.151-.005.004-.048-.038-.126-.126l-.338-.397-1.275-1.571a270.97 270.97 0 0 1-4.654-6.01c-4.042-5.119-8.835-13.001-14.667-22.039l.245.109-19.838 3.284-21.852 3.578-9.54 1.547-4.311.699c-1.322.335-2.527.965-3.547 1.707-2.056 1.499-3.39 3.472-4.225 5.304-.237.449-.401.911-.551 1.358-.144.448-.335.864-.425 1.291-.18.851-.443 1.61-.51 2.327l-.264 1.888-.083 1.396-.062.86c-.013.194-.026.293-.035.293Z"/><path fill="#455A64" d="M139.899 286.009c.036-.002.075.318.114.901.051.582.038 1.431-.053 2.474-.083 1.045-.307 2.277-.669 3.616a23.338 23.338 0 0 1-1.665 4.189 23.33 23.33 0 0 1-2.5 3.751c-.896 1.059-1.783 1.944-2.595 2.606-.805.668-1.497 1.16-2.005 1.449-.502.299-.787.449-.806.418-.053-.082 1.044-.761 2.568-2.145.767-.685 1.609-1.579 2.465-2.632a25.325 25.325 0 0 0 2.411-3.691 25.371 25.371 0 0 0 1.665-4.081c.379-1.303.636-2.503.764-3.524.273-2.04.208-3.328.306-3.331Z"/><path fill="#127BBF" d="m391.905 385.684-130.856-.078c-15.738-.008-28.491-12.771-28.488-28.509l.064-328.059C232.628 13.291 245.399.53 261.146.539l130.857.077c15.738.01 28.49 12.772 28.487 28.51l-.064 328.06c-.003 15.746-12.774 28.508-28.521 28.498Z"/><path fill="#fff" d="m391.864 12.219-25.371-.015c-3.402-.002-6.162 2.881-6.161 6.437l-.002 4.602c0 3.557-2.759 6.439-6.161 6.437l-49.453-.029c-3.402-.002-6.16-2.887-6.159-6.444l.001-4.602c0-3.557-2.758-6.442-6.16-6.444l-8.923-.006-22.206-.013c-11.028-.006-19.972 8.931-19.974 19.959l-.063 320.209c-.002 11.023 8.929 19.961 19.951 19.968l130.595.076c11.027.007 19.971-8.93 19.974-19.959l.063-320.21c.002-11.021-8.929-19.959-19.951-19.966Z"/><path fill="#F5F5F5" d="M411.815 32.186c.002-11.022-8.929-19.96-19.951-19.967l-25.371-.015c-3.402-.002-6.162 2.881-6.161 6.437l-.002 4.602c0 3.557-2.759 6.439-6.161 6.437l-49.453-.029c-3.402-.002-6.16-2.887-6.159-6.444l.001-4.602c0-3.557-2.758-6.442-6.16-6.444l-8.923-.006-22.206-.013c-11.028-.006-19.972 8.931-19.974 19.959l-.063 30.62h170.58l.003-30.535Z"/><path fill="#127BBF" d="M397.936 43.437c.001.095-3.056.198-6.826.229-3.772.031-6.829-.021-6.83-.116-.001-.096 3.055-.198 6.827-.229 3.77-.031 6.828.021 6.829.116ZM397.964 46.931c.001.095-3.056.198-6.826.229-3.772.031-6.829-.021-6.83-.116-.001-.095 3.055-.198 6.827-.229 3.771-.031 6.829.021 6.829.116ZM397.993 50.425c.001.095-3.056.198-6.826.229-3.772.031-6.829-.021-6.83-.117-.001-.095 3.055-.198 6.827-.229 3.771-.03 6.829.022 6.829.117ZM279.114 285.237l.688-1.45c.967.874 2.621 1.506 4.294 1.506 2.248 0 3.215-.874 3.215-2.008 0-3.178-7.88-1.171-7.88-6.003 0-2.007 1.561-3.717 4.98-3.717 1.524 0 3.103.409 4.182 1.152l-.613 1.486a6.717 6.717 0 0 0-3.568-1.059c-2.212 0-3.159.929-3.159 2.063 0 3.178 7.88 1.189 7.88 5.966 0 1.988-1.599 3.698-5.036 3.698-1.991 0-3.942-.668-4.983-1.634ZM290.673 281.798c0-2.937 2.175-5.019 5.204-5.019 1.766 0 3.234.725 4.015 2.101l-1.356.873c-.633-.966-1.599-1.412-2.677-1.412-1.933 0-3.383 1.357-3.383 3.457 0 2.137 1.45 3.476 3.383 3.476 1.078 0 2.044-.446 2.677-1.413l1.356.855c-.78 1.375-2.249 2.118-4.015 2.118-3.029 0-5.204-2.099-5.204-5.036ZM310.002 280.776v5.947h-1.691v-1.301c-.595.892-1.691 1.412-3.233 1.412-2.23 0-3.643-1.189-3.643-2.899 0-1.579 1.021-2.881 3.958-2.881h2.825v-.352c0-1.506-.873-2.379-2.639-2.379-1.171 0-2.36.409-3.123 1.06l-.743-1.339c1.022-.817 2.49-1.264 4.07-1.264 2.694 0 4.219 1.3 4.219 3.996Zm-1.785 2.936v-1.375h-2.751c-1.766 0-2.267.688-2.267 1.523 0 .985.817 1.599 2.174 1.599 1.339 0 2.398-.613 2.844-1.747ZM322.658 281.054v5.669h-1.784v-5.464c0-1.933-.967-2.881-2.658-2.881-1.895 0-3.122 1.134-3.122 3.271v5.074h-1.784v-9.851h1.71v1.487c.725-1.004 1.988-1.58 3.55-1.58 2.396.001 4.088 1.377 4.088 4.275ZM335.314 281.054v5.669h-1.784v-5.464c0-1.933-.967-2.881-2.658-2.881-1.896 0-3.122 1.134-3.122 3.271v5.074h-1.784v-9.851h1.71v1.487c.725-1.004 1.988-1.58 3.55-1.58 2.397.001 4.088 1.377 4.088 4.275ZM338.305 273.824c0-.65.52-1.171 1.208-1.171.689 0 1.208.502 1.208 1.134 0 .669-.501 1.189-1.208 1.189-.687.001-1.208-.501-1.208-1.152Zm.317 3.048h1.784v9.851h-1.784v-9.851ZM353.156 281.054v5.669h-1.784v-5.464c0-1.933-.967-2.881-2.658-2.881-1.896 0-3.122 1.134-3.122 3.271v5.074h-1.784v-9.851h1.71v1.487c.725-1.004 1.988-1.58 3.55-1.58 2.396.001 4.088 1.377 4.088 4.275ZM365.941 276.872v8.513c0 3.476-1.766 5.055-5.111 5.055-1.803 0-3.624-.502-4.702-1.468l.855-1.376c.91.781 2.342 1.283 3.791 1.283 2.323 0 3.383-1.078 3.383-3.309v-.78c-.855 1.021-2.138 1.523-3.55 1.523-2.844 0-5-1.933-5-4.776 0-2.844 2.156-4.758 5-4.758 1.468 0 2.806.539 3.643 1.617v-1.524h1.691Zm-1.747 4.665c0-1.914-1.413-3.196-3.383-3.196-1.988 0-3.401 1.282-3.401 3.196 0 1.895 1.413 3.216 3.401 3.216 1.97 0 3.383-1.32 3.383-3.216ZM368.504 285.552c0-.743.576-1.264 1.265-1.264.669 0 1.227.521 1.227 1.264s-.558 1.282-1.227 1.282a1.258 1.258 0 0 1-1.265-1.282ZM372.723 285.552c0-.743.576-1.264 1.265-1.264.669 0 1.227.521 1.227 1.264s-.558 1.282-1.227 1.282a1.258 1.258 0 0 1-1.265-1.282ZM376.942 285.552c0-.743.576-1.264 1.265-1.264.669 0 1.227.521 1.227 1.264s-.558 1.282-1.227 1.282a1.258 1.258 0 0 1-1.265-1.282ZM269.143 183.875v6.191h6.191v-12.382h-6.191v6.191ZM275.334 146.728h-6.191v6.191h6.191v-6.191ZM313.592 214.894h-6.191v6.191h6.191v-6.191ZM275.334 159.11v6.191h-6.191v6.192h6.191v6.191h12.382v6.191h6.192v-6.191h6.191v-12.383h-6.191v6.192h-12.383V152.919h-6.191v6.191ZM287.716 146.728h-6.191v6.191h12.383v-6.191h-6.192ZM315.577 196.499h3.327v-6.191H312.251v6.191h3.326ZM300.099 152.919h-6.191v6.191h6.191v-6.191ZM343.437 177.684h-6.191v6.191h6.191v-6.191ZM349.629 109.581h-6.191v6.191h6.191v-6.191ZM312.481 159.11v-6.191h6.192v-6.191h-6.192v-6.191h-6.191v6.191h-6.191v6.191h6.191V177.684h6.191v-12.383h6.192v-6.191h-6.192ZM343.438 221.022h6.191v-6.191h-12.383v6.191h6.192ZM337.246 109.581h-6.191v6.191h6.191v-6.191Z"/><path fill="#127BBF" d="M335.698 159.11v-6.191h-6.191v-6.191h-6.191v12.382h-6.191v6.191h12.382v-6.191h6.191ZM370.643 146.728h-6.191v6.191h6.191v-6.191ZM306.468 177.684h-6.191v6.191h6.191v-6.191ZM331.055 140.537v-6.191h6.191v-6.192h12.383v-6.191h-6.191v-6.191h-6.192v6.191h-6.191v6.191h-6.191v6.192h-6.191v6.191h12.382ZM331.055 183.875v-6.191h6.191v-6.191h-12.382v6.191h-6.191v6.191h12.382ZM349.629 208.637v-6.192h-12.383v-6.191h-6.191v6.191h-6.191v6.192h-12.383v6.191H331.055v-6.191h6.191v6.191h6.192v-6.191h6.191ZM324.864 115.772v-6.191h-12.383v6.191h-6.191v6.191h12.383v-6.191h6.191Z"/><path fill="#127BBF" d="M324.864 121.963h-6.191v6.191h6.191v-6.191ZM340.342 146.728h-6.191v18.573h12.382v-6.191h-6.191v-6.191h6.191v-6.191h6.191v-6.191h-6.191v-6.191h-6.191v12.382ZM318.672 128.154h-6.191v6.191h6.191v-6.191ZM337.246 190.066v6.192h12.383v-6.192h12.382v-6.191h-18.573v6.191h-6.192ZM370.643 165.301h-6.191v6.191h6.191v-6.191ZM349.629 171.493h-6.191v6.191h6.191v-6.191Z"/><path fill="#127BBF" d="M365.107 152.919h-12.383v6.191h6.192v6.191h6.191v-12.382ZM362.011 171.493h-6.191v6.191h6.191v-6.191ZM293.908 208.756h18.581v-24.888H287.6v6.198h-6.075v6.191h6.075v6.191h-6.075v6.191h6.075v.116h.116v6.075h-6.191v12.382h6.191v-6.191h6.191v-6.191l.001-6.074Zm13.814-20.121v15.478h-15.478v-15.478h15.478ZM374.394 183.875h6.191v-6.191H362.011v6.191h12.383ZM374.394 159.11h6.191v-12.382h-6.191v12.382ZM325.095 190.308h-6.191v12.382h6.191v-12.382ZM386.776 183.875h-6.191v6.191h6.191v-6.191ZM386.776 171.493v-6.192h-6.191v12.383h6.191v-6.191ZM275.334 214.831h-6.191v12.383h6.191v-12.383ZM386.776 140.537v-30.956H355.82v30.956h30.956Zm-26.312-4.644v-21.669h21.669v21.669h-21.669Z"/><path fill="#127BBF" d="M377.489 118.867h-12.382v12.382h12.382v-12.382ZM386.776 196.258H355.82v30.956h30.956v-30.956Zm-26.312 26.312v-21.669h21.669v21.669h-21.669Z"/><path fill="#127BBF" d="M377.489 205.544h-12.382v12.383h12.382v-12.383ZM269.065 109.581v30.956h30.956v-30.956h-30.956Zm26.313 4.643v21.669h-21.669v-21.669h21.669Z"/><path fill="#127BBF" d="M290.735 118.867h-12.383v12.382h12.383v-12.382Z"/><path fill="#FF725E" d="M260.236 131.161v-21.987c0-2.05.344-3.99 1.743-5.604 1.563-1.803 3.706-2.498 6.025-2.498H291.122c.89 0 .891-1.383 0-1.383h-22.864c-1.959 0-3.833.289-5.512 1.393-2.453 1.612-3.841 4.308-3.893 7.22-.064 3.617 0 7.242 0 10.86v11.998c.001.891 1.383.893 1.383.001ZM289.098 237.668h-21.987c-2.05 0-3.99-.344-5.603-1.743-1.803-1.563-2.498-3.706-2.498-6.025V206.782c0-.89-1.383-.891-1.383 0v22.864c0 1.959.289 3.833 1.393 5.512 1.612 2.453 4.308 3.842 7.22 3.893 3.618.064 7.242 0 10.86 0h11.998c.89 0 .892-1.383 0-1.383ZM394.94 206.562v21.987c0 2.05-.344 3.99-1.743 5.603-1.563 1.803-3.706 2.498-6.025 2.498H364.054c-.89 0-.891 1.383 0 1.383h22.864c1.959 0 3.833-.289 5.512-1.393 2.453-1.612 3.841-4.308 3.893-7.22.064-3.618 0-7.242 0-10.86v-11.998c-.001-.889-1.383-.891-1.383 0ZM364.452 101.074h21.987c2.05 0 3.99.344 5.604 1.743 1.803 1.563 2.498 3.706 2.498 6.025V131.96c0 .89 1.383.891 1.383 0v-22.864c0-1.959-.289-3.833-1.393-5.512-1.612-2.453-4.308-3.841-7.22-3.893-3.618-.064-7.242 0-10.86 0h-11.998c-.89 0-.892 1.383-.001 1.383Z"/><path fill="#EBEBEB" d="M377.012 340.087H272.716c-9.179 0-16.62-7.441-16.62-16.62v-3.528c0-9.179 7.441-16.62 16.62-16.62h104.295c9.179 0 16.619 7.441 16.619 16.62v3.528c.001 9.179-7.44 16.62-16.618 16.62Z"/><path fill="#127BBF" d="M379.2 328.619c0 .144-23.586.26-52.674.26-29.098 0-52.679-.116-52.679-.26 0-.144 23.581-.26 52.679-.26 29.088-.001 52.674.116 52.674.26Z"/><path fill="#000" d="m273.403 324-1.994-6.545h1.057l1.415 5.011h.068l1.398-5.011h1.073l1.381 4.994h.068l1.415-4.994h1.057L278.347 324h-.989l-1.432-5.028h-.102L274.392 324h-.989Zm9.75 0-1.994-6.545h1.057l1.415 5.011h.068l1.398-5.011h1.073l1.381 4.994h.068l1.415-4.994h1.057L288.097 324h-.989l-1.432-5.028h-.102L284.142 324h-.989Zm9.75 0-1.994-6.545h1.057l1.415 5.011h.068l1.398-5.011h1.073l1.381 4.994h.068l1.415-4.994h1.057L297.847 324h-.989l-1.432-5.028h-.102L293.892 324h-.989Zm8.11.068a.736.736 0 0 1-.541-.226.736.736 0 0 1-.226-.541c0-.21.075-.39.226-.541a.736.736 0 0 1 .541-.226c.21 0 .39.075.541.226a.737.737 0 0 1 .226.541.793.793 0 0 1-.384.665.73.73 0 0 1-.383.102Zm5.316.068c-.631 0-1.175-.139-1.632-.417a2.803 2.803 0 0 1-1.053-1.176c-.244-.506-.366-1.094-.366-1.765 0-.67.122-1.261.366-1.772a2.888 2.888 0 0 1 1.031-1.202c.444-.29.961-.435 1.552-.435a3.1 3.1 0 0 1 1.01.171c.332.113.634.298.907.554.273.253.49.588.652 1.005.162.418.243.932.243 1.543v.426h-5.045v-.869h4.022c0-.369-.074-.699-.221-.989a1.677 1.677 0 0 0-.622-.686 1.749 1.749 0 0 0-.946-.251c-.401 0-.748.099-1.04.298a1.96 1.96 0 0 0-.669.767 2.255 2.255 0 0 0-.235 1.014v.58c0 .494.086.913.256 1.257.173.341.413.601.72.78.307.176.664.264 1.07.264.264 0 .503-.037.716-.111.216-.077.402-.19.558-.341.156-.153.277-.344.362-.571l.972.273a2.149 2.149 0 0 1-.516.869c-.241.247-.54.441-.895.58a3.325 3.325 0 0 1-1.197.204Zm4.24 2.319v-9h.971v1.039h.12a9.15 9.15 0 0 1 .307-.434c.133-.179.323-.338.571-.478.25-.142.588-.213 1.014-.213.551 0 1.037.138 1.457.414.421.275.749.666.985 1.172.235.505.353 1.102.353 1.789 0 .694-.118 1.294-.353 1.803-.236.506-.563.898-.981 1.176-.417.276-.899.413-1.444.413-.421 0-.757-.069-1.01-.208a1.878 1.878 0 0 1-.584-.482 6.475 6.475 0 0 1-.315-.452h-.085v3.461h-1.006Zm.989-5.728c0 .495.072.931.217 1.309.145.375.356.669.635.882.278.21.619.315 1.023.315.42 0 .771-.111 1.052-.332.284-.225.497-.526.639-.904.145-.381.218-.804.218-1.27 0-.46-.071-.875-.213-1.244a1.93 1.93 0 0 0-.635-.882c-.282-.219-.635-.328-1.061-.328-.41 0-.753.103-1.032.311a1.862 1.862 0 0 0-.63.861c-.142.366-.213.794-.213 1.282Zm8.25 3.426c-.415 0-.792-.078-1.13-.234a1.94 1.94 0 0 1-.805-.686c-.199-.301-.298-.665-.298-1.091 0-.375.073-.679.221-.912.148-.236.345-.42.592-.554.248-.133.52-.233.819-.298.301-.068.603-.122.907-.162.398-.051.721-.09.968-.115.25-.029.431-.075.545-.141.117-.065.175-.179.175-.341v-.034c0-.42-.115-.747-.345-.98-.228-.233-.573-.349-1.036-.349-.48 0-.856.105-1.129.315-.273.21-.465.435-.575.673l-.955-.341c.171-.397.398-.707.682-.929.287-.224.599-.38.937-.468a3.896 3.896 0 0 1 1.006-.137c.21 0 .452.026.725.077.275.048.541.149.796.303.259.153.473.385.644.694.17.31.256.725.256 1.245V324h-1.006v-.886h-.051a1.77 1.77 0 0 1-.341.456 1.973 1.973 0 0 1-.635.413c-.264.114-.587.17-.967.17Zm.153-.903c.398 0 .733-.078 1.006-.234.275-.157.483-.358.622-.605.142-.248.213-.508.213-.78v-.921c-.043.051-.137.098-.281.141-.142.04-.307.075-.495.106a20.68 20.68 0 0 1-.963.128 3.91 3.91 0 0 0-.733.166 1.261 1.261 0 0 0-.545.337c-.137.148-.205.349-.205.605 0 .35.13.614.388.793.261.176.592.264.993.264Zm9.318-4.33-.903.256a1.713 1.713 0 0 0-.251-.439 1.22 1.22 0 0 0-.444-.358c-.187-.093-.427-.14-.72-.14-.4 0-.734.092-1.001.277-.264.181-.396.413-.396.694 0 .25.09.448.272.593.182.144.466.265.853.362l.971.238c.585.142 1.021.36 1.308.652.287.29.431.664.431 1.121 0 .375-.108.71-.324 1.006a2.153 2.153 0 0 1-.895.699c-.383.17-.83.255-1.338.255-.668 0-1.22-.145-1.658-.434-.437-.29-.714-.713-.831-1.27l.955-.239c.091.352.263.617.516.793.255.176.589.264 1.001.264.469 0 .841-.099 1.116-.298.279-.202.418-.443.418-.725a.763.763 0 0 0-.239-.571c-.159-.156-.403-.272-.733-.349l-1.09-.256c-.6-.142-1.04-.362-1.322-.66-.278-.302-.417-.678-.417-1.13 0-.369.104-.696.311-.98a2.12 2.12 0 0 1 .856-.669 3.01 3.01 0 0 1 1.236-.243c.648 0 1.157.142 1.526.426.372.285.636.66.792 1.125Zm6.27 0-.903.256a1.689 1.689 0 0 0-.252-.439 1.226 1.226 0 0 0-.443-.358c-.188-.093-.428-.14-.72-.14-.401 0-.735.092-1.002.277-.264.181-.396.413-.396.694 0 .25.091.448.273.593.182.144.466.265.852.362l.972.238c.585.142 1.021.36 1.308.652.287.29.43.664.43 1.121 0 .375-.108.71-.324 1.006a2.156 2.156 0 0 1-.894.699c-.384.17-.83.255-1.338.255-.668 0-1.221-.145-1.658-.434-.438-.29-.715-.713-.831-1.27l.954-.239c.091.352.263.617.516.793.256.176.59.264 1.001.264.469 0 .841-.099 1.117-.298.278-.202.418-.443.418-.725a.763.763 0 0 0-.239-.571c-.159-.156-.403-.272-.733-.349l-1.091-.256c-.599-.142-1.04-.362-1.321-.66-.278-.302-.418-.678-.418-1.13 0-.369.104-.696.311-.98.211-.284.496-.507.857-.669a3.01 3.01 0 0 1 1.236-.243c.648 0 1.156.142 1.525.426a2.3 2.3 0 0 1 .793 1.125Zm2.366 5.148a.737.737 0 0 1-.541-.226.736.736 0 0 1-.226-.541c0-.21.075-.39.226-.541a.737.737 0 0 1 .541-.226c.21 0 .391.075.541.226a.737.737 0 0 1 .226.541.726.726 0 0 1-.106.384.81.81 0 0 1-.277.281.735.735 0 0 1-.384.102Zm5.231.068c-.614 0-1.142-.145-1.585-.434a2.837 2.837 0 0 1-1.023-1.198c-.239-.508-.358-1.089-.358-1.743 0-.664.122-1.251.367-1.76.247-.511.59-.91 1.031-1.197.443-.29.96-.435 1.551-.435.46 0 .875.086 1.244.256.37.17.672.409.908.716s.382.665.439 1.074h-1.006a1.56 1.56 0 0 0-.511-.793c-.262-.233-.614-.349-1.057-.349-.392 0-.736.102-1.031.307a1.986 1.986 0 0 0-.686.856c-.162.367-.243.797-.243 1.291 0 .506.079.946.238 1.321.162.375.39.666.682.874.296.207.642.311 1.04.311.261 0 .499-.045.712-.136.213-.091.393-.222.541-.392.148-.171.253-.375.315-.614h1.006a2.34 2.34 0 0 1-.422 1.044 2.364 2.364 0 0 1-.882.733c-.364.179-.787.268-1.27.268Zm6.703 0c-.591 0-1.109-.14-1.555-.422a2.856 2.856 0 0 1-1.04-1.18c-.247-.506-.371-1.097-.371-1.773 0-.681.124-1.277.371-1.785.25-.509.596-.904 1.04-1.185.446-.281.964-.422 1.555-.422s1.108.141 1.551.422c.446.281.793.676 1.04 1.185.25.508.375 1.104.375 1.785 0 .676-.125 1.267-.375 1.773a2.822 2.822 0 0 1-1.04 1.18c-.443.282-.96.422-1.551.422Zm0-.903c.449 0 .818-.115 1.108-.345.29-.23.504-.533.643-.908.14-.375.209-.781.209-1.219 0-.437-.069-.845-.209-1.223a2.061 2.061 0 0 0-.643-.916c-.29-.233-.659-.349-1.108-.349-.449 0-.818.116-1.108.349-.29.233-.504.539-.643.916-.14.378-.209.786-.209 1.223 0 .438.069.844.209 1.219.139.375.353.678.643.908.29.23.659.345 1.108.345Zm4.501.767v-6.545h.972v1.022h.085c.136-.349.356-.62.66-.814.304-.196.67-.294 1.096-.294.431 0 .791.098 1.078.294.29.194.515.465.677.814h.069c.167-.338.419-.606.754-.805.335-.202.737-.303 1.206-.303.585 0 1.064.184 1.436.55.372.364.558.93.558 1.7V324h-1.006v-4.381c0-.483-.132-.828-.396-1.035a1.462 1.462 0 0 0-.933-.311c-.46 0-.817.139-1.07.417-.253.276-.379.625-.379 1.049V324h-1.023v-4.483c0-.372-.121-.672-.362-.899-.241-.23-.553-.345-.933-.345a1.37 1.37 0 0 0-.733.209 1.578 1.578 0 0 0-.546.579 1.714 1.714 0 0 0-.204.848V324h-1.006Zm11.163.068a.736.736 0 0 1-.541-.226.736.736 0 0 1-.226-.541c0-.21.075-.39.226-.541a.736.736 0 0 1 .541-.226c.21 0 .39.075.541.226a.737.737 0 0 1 .226.541.793.793 0 0 1-.384.665.73.73 0 0 1-.383.102Zm3.577-4.006V324h-1.005v-6.545h.971v1.022h.085a1.88 1.88 0 0 1 .699-.801c.313-.204.716-.307 1.21-.307.444 0 .831.091 1.164.273.332.179.591.452.775.818.185.364.277.824.277 1.381V324h-1.005v-4.091c0-.514-.134-.915-.401-1.202-.267-.289-.633-.434-1.099-.434-.321 0-.608.069-.861.209-.25.139-.448.342-.592.609-.145.267-.218.591-.218.971Zm6.014 6.393v-9h.972v1.039h.119a9.15 9.15 0 0 1 .307-.434c.133-.179.324-.338.571-.478.25-.142.588-.213 1.014-.213.551 0 1.037.138 1.457.414.421.275.749.666.985 1.172.236.505.353 1.102.353 1.789 0 .694-.117 1.294-.353 1.803-.236.506-.563.898-.98 1.176-.418.276-.899.413-1.445.413-.42 0-.757-.069-1.01-.208a1.878 1.878 0 0 1-.584-.482 6.475 6.475 0 0 1-.315-.452h-.085v3.461h-1.006Zm.989-5.728c0 .495.072.931.217 1.309.145.375.357.669.635.882.278.21.619.315 1.023.315.42 0 .771-.111 1.052-.332.284-.225.497-.526.639-.904.145-.381.218-.804.218-1.27 0-.46-.071-.875-.213-1.244a1.923 1.923 0 0 0-.635-.882c-.281-.219-.635-.328-1.061-.328-.409 0-.753.103-1.032.311a1.862 1.862 0 0 0-.63.861c-.142.366-.213.794-.213 1.282Z"/></svg>